<?xml version="1.0" encoding="iso-8859-1"?>
<!-- Generator: Adobe Illustrator 19.2.1, SVG Export Plug-In . SVG Version: 6.00 Build 0)  -->
<svg version="1.1" xmlns="http://www.w3.org/2000/svg" xmlns:xlink="http://www.w3.org/1999/xlink" x="0px" y="0px"
	 viewBox="0 0 40 40" style="enable-background:new 0 0 40 40;" xml:space="preserve">
<g id="Layer_1">
	<line style="fill:none;stroke:#36404D;stroke-miterlimit:10;" x1="23.771" y1="23.667" x2="27.5" y2="30.5"/>
	<path style="fill:#36404D;" d="M40,20.003V20c0-0.552-0.448-1-1-1h-4v2h4.003C39.553,21,40,20.553,40,20.003z"/>
	
		<rect x="20.833" y="15.5" transform="matrix(-1.836970e-16 1 -1 -1.836970e-16 43.5 -11.5)" style="fill:#66798F;" width="13.333" height="1"/>
	
		<rect x="9.833" y="15.5" transform="matrix(-1.836970e-16 1 -1 -1.836970e-16 32.5 -0.5)" style="fill:#66798F;" width="13.333" height="1"/>
	<g>
		<path style="fill:#F78F8F;" d="M19,26.5c-11.815,0-15.48-7.433-16.321-9.71c-0.902-2.442-1.606-4.339-1.959-5.29H4
			c0.765,0,1.497,0.363,1.958,0.972l2.644,3.318l0.341-0.131c0.055-0.021,5.284-2.006,7.785-2.15c0.52,0.78,2.259,2.991,5.272,2.991
			c3.024,0,4.764-2.227,5.278-3h3.657c2.529,0,4.565,3.009,4.565,5.5v2c0,2.491-2.007,5.5-4.5,5.5H19z"/>
		<g>
			<path style="fill:#C74343;" d="M4,12c0.609,0,1.192,0.29,1.574,0.794l2.409,3.022l0.456,0.572l0.683-0.261
				c1.423-0.543,5.277-1.88,7.362-2.097C17.209,15.019,19.031,17,22,17c2.999,0,4.828-2.022,5.538-3h3.397
				C33.124,14,35,16.749,35,19v2c0,2.265-1.784,5-4,5H19C7.507,26,3.961,18.817,3.148,16.616C2.424,14.658,1.828,13.051,1.438,12H4
				 M4,11H0c0,0,0.893,2.4,2.21,5.963C3.599,20.724,8.148,27,19,27h12c2.798,0,5-3.202,5-6v-2c0-2.798-2.268-6-5.066-6H27
				c0,0-1.671,3-5,3s-5-3-5-3c-2.49,0-8.235,2.193-8.235,2.193L6.356,12.17C5.797,11.433,4.925,11,4,11L4,11z"/>
		</g>
	</g>
	<g>
		<path style="fill:#FFC49C;" d="M22.667,11.5c-5.788,0-9.877-1.931-10.178-2.571C12.5,8.691,12.583,8.5,13,8.5
			c5.961-0.288,12.745-1.363,16.26-1.979l0.159-0.028C31.124,6.5,31.5,7.859,31.5,9C31.5,11.273,28.943,11.5,22.667,11.5z"/>
		<g>
			<path style="fill:#A16A4A;" d="M29.418,7C29.923,7.006,31,7.113,31,9c0,1.724-1.979,2-8.333,2c-4.706,0-8.141-1.283-9.339-2.015
				c4.373-0.229,10.042-0.926,16.007-1.97L29.418,7 M29.333,6C28.343,6.171,20.086,7.657,13,8c-0.341,0-1,0.118-1,1
				c0,0.857,4.571,3,10.667,3C28.61,12,32,11.914,32,9C32,8.057,31.74,6,29.333,6L29.333,6z"/>
		</g>
	</g>
	<g>
		<path style="fill:#FFC49C;" d="M31.5,13.508c2.228,0.147,4,2.249,4,4.811v3.363c0,2.562-1.772,4.663-4,4.811V13.508z"/>
		<g>
			<path style="fill:#A16A4A;" d="M32,14.087c1.71,0.401,3,2.146,3,4.232v3.362c0,2.086-1.29,3.831-3,4.232V14.087 M31.251,13H31v14
				h0.251C33.874,27,36,24.619,36,21.681v-3.362C36,15.381,33.874,13,31.251,13L31.251,13z"/>
		</g>
	</g>
	
		<rect x="29.5" y="19.5" transform="matrix(-1.836970e-16 1 -1 -1.836970e-16 57.5 -17.5)" style="fill:#66798F;" width="16" height="1"/>
	<g>
		<circle style="fill:#C8D1DB;" cx="27.5" cy="30.5" r="2"/>
		<path style="fill:#66798F;" d="M27.5,29c0.827,0,1.5,0.673,1.5,1.5S28.327,32,27.5,32S26,31.327,26,30.5S26.673,29,27.5,29
			 M27.5,28c-1.381,0-2.5,1.119-2.5,2.5s1.119,2.5,2.5,2.5s2.5-1.119,2.5-2.5S28.881,28,27.5,28L27.5,28z"/>
	</g>
</g>
<g id="Layer_2">
</g>
</svg>
